<mxfile host="app.diagrams.net" modified="2023-06-17T14:41:36.897Z" agent="Mozilla/5.0 (Windows NT 10.0; Win64; x64; rv:109.0) Gecko/20100101 Firefox/114.0" etag="iOtULXL7QQFVSNJPYRK5" version="21.4.0" type="device">
  <diagram name="Страница 1" id="fXAOdJVnVw7LRPHsal0p">
    <mxGraphModel dx="2902" dy="2866" grid="1" gridSize="10" guides="1" tooltips="1" connect="1" arrows="1" fold="1" page="1" pageScale="2" pageWidth="1169" pageHeight="827" background="none" math="0" shadow="0">
      <root>
        <mxCell id="0" />
        <mxCell id="1" parent="0" />
        <mxCell id="p1_Be9C10OXRyCUgE8wA-2" value="&lt;div&gt;Читатель&lt;/div&gt;" style="whiteSpace=wrap;html=1;align=center;" parent="1" vertex="1">
          <mxGeometry x="1546" y="650" width="100" height="40" as="geometry" />
        </mxCell>
        <mxCell id="p1_Be9C10OXRyCUgE8wA-4" value="&lt;div&gt;ФИО&lt;/div&gt;" style="ellipse;whiteSpace=wrap;html=1;align=center;fontStyle=0" parent="1" vertex="1">
          <mxGeometry x="1606" y="530" width="100" height="40" as="geometry" />
        </mxCell>
        <mxCell id="p1_Be9C10OXRyCUgE8wA-5" value="Номер формуляра" style="ellipse;whiteSpace=wrap;html=1;align=center;fontStyle=4" parent="1" vertex="1">
          <mxGeometry x="1686" y="570" width="100" height="40" as="geometry" />
        </mxCell>
        <mxCell id="p1_Be9C10OXRyCUgE8wA-6" value="&lt;div&gt;Паспортные данные&lt;/div&gt;" style="ellipse;whiteSpace=wrap;html=1;align=center;" parent="1" vertex="1">
          <mxGeometry x="1686" y="730" width="100" height="40" as="geometry" />
        </mxCell>
        <mxCell id="p1_Be9C10OXRyCUgE8wA-7" value="Адрес проживания" style="ellipse;whiteSpace=wrap;html=1;align=center;" parent="1" vertex="1">
          <mxGeometry x="1766" y="690" width="100" height="40" as="geometry" />
        </mxCell>
        <mxCell id="p1_Be9C10OXRyCUgE8wA-8" value="Телефон" style="ellipse;whiteSpace=wrap;html=1;align=center;" parent="1" vertex="1">
          <mxGeometry x="1776" y="610" width="100" height="40" as="geometry" />
        </mxCell>
        <mxCell id="p1_Be9C10OXRyCUgE8wA-9" value="Электронная почта" style="ellipse;whiteSpace=wrap;html=1;align=center;" parent="1" vertex="1">
          <mxGeometry x="1606" y="770" width="100" height="40" as="geometry" />
        </mxCell>
        <mxCell id="p1_Be9C10OXRyCUgE8wA-10" value="" style="endArrow=none;html=1;rounded=0;entryX=0.5;entryY=1;entryDx=0;entryDy=0;exitX=0.5;exitY=0;exitDx=0;exitDy=0;" parent="1" source="p1_Be9C10OXRyCUgE8wA-2" target="p1_Be9C10OXRyCUgE8wA-4" edge="1">
          <mxGeometry relative="1" as="geometry">
            <mxPoint x="1436" y="760" as="sourcePoint" />
            <mxPoint x="1596" y="760" as="targetPoint" />
          </mxGeometry>
        </mxCell>
        <mxCell id="p1_Be9C10OXRyCUgE8wA-11" value="" style="endArrow=none;html=1;rounded=0;entryX=0.5;entryY=1;entryDx=0;entryDy=0;exitX=1;exitY=0;exitDx=0;exitDy=0;" parent="1" source="p1_Be9C10OXRyCUgE8wA-2" target="p1_Be9C10OXRyCUgE8wA-5" edge="1">
          <mxGeometry relative="1" as="geometry">
            <mxPoint x="1436" y="760" as="sourcePoint" />
            <mxPoint x="1596" y="760" as="targetPoint" />
          </mxGeometry>
        </mxCell>
        <mxCell id="p1_Be9C10OXRyCUgE8wA-12" value="" style="endArrow=none;html=1;rounded=0;entryX=0;entryY=0.5;entryDx=0;entryDy=0;exitX=1;exitY=0.5;exitDx=0;exitDy=0;" parent="1" source="p1_Be9C10OXRyCUgE8wA-2" target="p1_Be9C10OXRyCUgE8wA-8" edge="1">
          <mxGeometry relative="1" as="geometry">
            <mxPoint x="1436" y="760" as="sourcePoint" />
            <mxPoint x="1596" y="760" as="targetPoint" />
          </mxGeometry>
        </mxCell>
        <mxCell id="p1_Be9C10OXRyCUgE8wA-13" value="" style="endArrow=none;html=1;rounded=0;exitX=0.5;exitY=1;exitDx=0;exitDy=0;entryX=0.5;entryY=0;entryDx=0;entryDy=0;" parent="1" source="p1_Be9C10OXRyCUgE8wA-2" target="p1_Be9C10OXRyCUgE8wA-9" edge="1">
          <mxGeometry relative="1" as="geometry">
            <mxPoint x="1436" y="760" as="sourcePoint" />
            <mxPoint x="1596" y="760" as="targetPoint" />
          </mxGeometry>
        </mxCell>
        <mxCell id="p1_Be9C10OXRyCUgE8wA-14" value="" style="endArrow=none;html=1;rounded=0;exitX=1;exitY=1;exitDx=0;exitDy=0;entryX=0.5;entryY=0;entryDx=0;entryDy=0;" parent="1" source="p1_Be9C10OXRyCUgE8wA-2" target="p1_Be9C10OXRyCUgE8wA-6" edge="1">
          <mxGeometry relative="1" as="geometry">
            <mxPoint x="1446" y="740" as="sourcePoint" />
            <mxPoint x="1606" y="740" as="targetPoint" />
          </mxGeometry>
        </mxCell>
        <mxCell id="p1_Be9C10OXRyCUgE8wA-15" value="" style="endArrow=none;html=1;rounded=0;exitX=1;exitY=0.5;exitDx=0;exitDy=0;entryX=0;entryY=0.5;entryDx=0;entryDy=0;" parent="1" source="p1_Be9C10OXRyCUgE8wA-2" target="p1_Be9C10OXRyCUgE8wA-7" edge="1">
          <mxGeometry relative="1" as="geometry">
            <mxPoint x="1446" y="740" as="sourcePoint" />
            <mxPoint x="1606" y="740" as="targetPoint" />
          </mxGeometry>
        </mxCell>
        <mxCell id="p1_Be9C10OXRyCUgE8wA-16" value="Абонемент" style="shape=rhombus;perimeter=rhombusPerimeter;whiteSpace=wrap;html=1;align=center;" parent="1" vertex="1">
          <mxGeometry x="1248" y="633.75" width="138" height="72.5" as="geometry" />
        </mxCell>
        <mxCell id="p1_Be9C10OXRyCUgE8wA-17" value="" style="endArrow=none;html=1;rounded=0;entryX=1;entryY=0.5;entryDx=0;entryDy=0;exitX=0;exitY=0.5;exitDx=0;exitDy=0;" parent="1" source="p1_Be9C10OXRyCUgE8wA-2" target="p1_Be9C10OXRyCUgE8wA-16" edge="1">
          <mxGeometry relative="1" as="geometry">
            <mxPoint x="1426" y="700" as="sourcePoint" />
            <mxPoint x="1586" y="700" as="targetPoint" />
          </mxGeometry>
        </mxCell>
        <mxCell id="p1_Be9C10OXRyCUgE8wA-18" value="M" style="resizable=0;html=1;whiteSpace=wrap;align=left;verticalAlign=bottom;" parent="p1_Be9C10OXRyCUgE8wA-17" connectable="0" vertex="1">
          <mxGeometry x="-1" relative="1" as="geometry">
            <mxPoint x="-26" y="30" as="offset" />
          </mxGeometry>
        </mxCell>
        <mxCell id="p1_Be9C10OXRyCUgE8wA-28" value="Книга" style="whiteSpace=wrap;html=1;align=center;" parent="1" vertex="1">
          <mxGeometry x="966" y="130" width="100" height="40" as="geometry" />
        </mxCell>
        <mxCell id="p1_Be9C10OXRyCUgE8wA-32" value="" style="endArrow=none;html=1;rounded=0;exitX=1;exitY=0.5;exitDx=0;exitDy=0;entryX=0;entryY=0.5;entryDx=0;entryDy=0;" parent="1" target="p1_Be9C10OXRyCUgE8wA-16" edge="1">
          <mxGeometry relative="1" as="geometry">
            <mxPoint x="1066" y="670" as="sourcePoint" />
            <mxPoint x="1256" y="700" as="targetPoint" />
          </mxGeometry>
        </mxCell>
        <mxCell id="p1_Be9C10OXRyCUgE8wA-33" value="M" style="resizable=0;html=1;whiteSpace=wrap;align=left;verticalAlign=bottom;" parent="p1_Be9C10OXRyCUgE8wA-32" connectable="0" vertex="1">
          <mxGeometry x="-1" relative="1" as="geometry">
            <mxPoint x="14" y="30" as="offset" />
          </mxGeometry>
        </mxCell>
        <mxCell id="4TZB-WGcxCzN_EBqIF76-2" value="" style="endArrow=none;html=1;rounded=0;exitX=0.5;exitY=0;exitDx=0;exitDy=0;" parent="1" target="PKeGHHdxVmDz_WfXFV7r-2" edge="1">
          <mxGeometry relative="1" as="geometry">
            <mxPoint x="1016" y="650" as="sourcePoint" />
            <mxPoint x="1016" y="530" as="targetPoint" />
          </mxGeometry>
        </mxCell>
        <mxCell id="4TZB-WGcxCzN_EBqIF76-3" value="M" style="resizable=0;html=1;whiteSpace=wrap;align=left;verticalAlign=bottom;" parent="4TZB-WGcxCzN_EBqIF76-2" connectable="0" vertex="1">
          <mxGeometry x="-1" relative="1" as="geometry">
            <mxPoint x="14" y="-10" as="offset" />
          </mxGeometry>
        </mxCell>
        <mxCell id="4TZB-WGcxCzN_EBqIF76-5" value="&lt;div&gt;Название&lt;/div&gt;" style="ellipse;whiteSpace=wrap;html=1;align=center;" parent="1" vertex="1">
          <mxGeometry x="786" y="90" width="100" height="40" as="geometry" />
        </mxCell>
        <mxCell id="4TZB-WGcxCzN_EBqIF76-6" value="Авторы" style="ellipse;whiteSpace=wrap;html=1;align=center;" parent="1" vertex="1">
          <mxGeometry x="826" y="50" width="100" height="40" as="geometry" />
        </mxCell>
        <mxCell id="4TZB-WGcxCzN_EBqIF76-7" value="Номер тома" style="ellipse;whiteSpace=wrap;html=1;align=center;" parent="1" vertex="1">
          <mxGeometry x="866" y="10" width="100" height="40" as="geometry" />
        </mxCell>
        <mxCell id="4TZB-WGcxCzN_EBqIF76-8" value="&lt;div&gt;Составители издания&lt;/div&gt;" style="ellipse;whiteSpace=wrap;html=1;align=center;" parent="1" vertex="1">
          <mxGeometry x="634" y="200" width="100" height="40" as="geometry" />
        </mxCell>
        <mxCell id="4TZB-WGcxCzN_EBqIF76-9" value="Язык оригинала" style="ellipse;whiteSpace=wrap;html=1;align=center;" parent="1" vertex="1">
          <mxGeometry x="1066" y="10" width="100" height="40" as="geometry" />
        </mxCell>
        <mxCell id="4TZB-WGcxCzN_EBqIF76-10" value="Язык книги" style="ellipse;whiteSpace=wrap;html=1;align=center;" parent="1" vertex="1">
          <mxGeometry x="760" y="370" width="100" height="40" as="geometry" />
        </mxCell>
        <mxCell id="4TZB-WGcxCzN_EBqIF76-11" value="&lt;div&gt;Области знаний&lt;/div&gt;" style="ellipse;whiteSpace=wrap;html=1;align=center;" parent="1" vertex="1">
          <mxGeometry x="1106" y="50" width="100" height="40" as="geometry" />
        </mxCell>
        <mxCell id="4TZB-WGcxCzN_EBqIF76-12" value="Библиотечный шифр" style="ellipse;whiteSpace=wrap;html=1;align=center;fontStyle=4" parent="1" vertex="1">
          <mxGeometry x="1106" y="400" width="100" height="40" as="geometry" />
        </mxCell>
        <mxCell id="4TZB-WGcxCzN_EBqIF76-13" value="" style="endArrow=none;html=1;rounded=0;entryX=1;entryY=0.5;entryDx=0;entryDy=0;exitX=0;exitY=0.5;exitDx=0;exitDy=0;" parent="1" source="p1_Be9C10OXRyCUgE8wA-28" target="4TZB-WGcxCzN_EBqIF76-5" edge="1">
          <mxGeometry relative="1" as="geometry">
            <mxPoint x="1316" y="330" as="sourcePoint" />
            <mxPoint x="1476" y="330" as="targetPoint" />
          </mxGeometry>
        </mxCell>
        <mxCell id="4TZB-WGcxCzN_EBqIF76-14" value="" style="endArrow=none;html=1;rounded=0;exitX=1;exitY=0.5;exitDx=0;exitDy=0;entryX=0;entryY=0;entryDx=0;entryDy=0;" parent="1" source="4TZB-WGcxCzN_EBqIF76-6" target="p1_Be9C10OXRyCUgE8wA-28" edge="1">
          <mxGeometry relative="1" as="geometry">
            <mxPoint x="926" y="69.5" as="sourcePoint" />
            <mxPoint x="1086" y="69.5" as="targetPoint" />
          </mxGeometry>
        </mxCell>
        <mxCell id="4TZB-WGcxCzN_EBqIF76-15" value="" style="endArrow=none;html=1;rounded=0;exitX=1;exitY=1;exitDx=0;exitDy=0;entryX=0.25;entryY=0;entryDx=0;entryDy=0;" parent="1" source="4TZB-WGcxCzN_EBqIF76-7" target="p1_Be9C10OXRyCUgE8wA-28" edge="1">
          <mxGeometry relative="1" as="geometry">
            <mxPoint x="1026" y="140" as="sourcePoint" />
            <mxPoint x="1186" y="140" as="targetPoint" />
          </mxGeometry>
        </mxCell>
        <mxCell id="4TZB-WGcxCzN_EBqIF76-16" value="" style="endArrow=none;html=1;rounded=0;exitX=1;exitY=0.5;exitDx=0;exitDy=0;entryX=0;entryY=0.5;entryDx=0;entryDy=0;" parent="1" source="4TZB-WGcxCzN_EBqIF76-8" target="kRo_N9MMr0cQoMARdV8Y-3" edge="1">
          <mxGeometry relative="1" as="geometry">
            <mxPoint x="1010" y="130" as="sourcePoint" />
            <mxPoint x="794" y="260" as="targetPoint" />
          </mxGeometry>
        </mxCell>
        <mxCell id="4TZB-WGcxCzN_EBqIF76-17" value="" style="endArrow=none;html=1;rounded=0;exitX=0.75;exitY=0;exitDx=0;exitDy=0;entryX=0;entryY=1;entryDx=0;entryDy=0;" parent="1" source="p1_Be9C10OXRyCUgE8wA-28" target="4TZB-WGcxCzN_EBqIF76-9" edge="1">
          <mxGeometry relative="1" as="geometry">
            <mxPoint x="1026" y="160" as="sourcePoint" />
            <mxPoint x="1186" y="160" as="targetPoint" />
          </mxGeometry>
        </mxCell>
        <mxCell id="4TZB-WGcxCzN_EBqIF76-18" value="" style="endArrow=none;html=1;rounded=0;exitX=0;exitY=1;exitDx=0;exitDy=0;entryX=1;entryY=0.5;entryDx=0;entryDy=0;" parent="1" source="PKeGHHdxVmDz_WfXFV7r-2" target="4TZB-WGcxCzN_EBqIF76-10" edge="1">
          <mxGeometry relative="1" as="geometry">
            <mxPoint x="1066" y="240" as="sourcePoint" />
            <mxPoint x="1226" y="240" as="targetPoint" />
          </mxGeometry>
        </mxCell>
        <mxCell id="4TZB-WGcxCzN_EBqIF76-19" value="" style="endArrow=none;html=1;rounded=0;exitX=1;exitY=0;exitDx=0;exitDy=0;entryX=0;entryY=0.5;entryDx=0;entryDy=0;" parent="1" source="p1_Be9C10OXRyCUgE8wA-28" target="4TZB-WGcxCzN_EBqIF76-11" edge="1">
          <mxGeometry relative="1" as="geometry">
            <mxPoint x="1316" y="330" as="sourcePoint" />
            <mxPoint x="1476" y="330" as="targetPoint" />
          </mxGeometry>
        </mxCell>
        <mxCell id="4TZB-WGcxCzN_EBqIF76-20" value="" style="endArrow=none;html=1;rounded=0;exitX=1;exitY=1;exitDx=0;exitDy=0;entryX=0;entryY=0.5;entryDx=0;entryDy=0;" parent="1" source="PKeGHHdxVmDz_WfXFV7r-2" target="4TZB-WGcxCzN_EBqIF76-12" edge="1">
          <mxGeometry relative="1" as="geometry">
            <mxPoint x="1146" y="209" as="sourcePoint" />
            <mxPoint x="1146.0000000000205" y="110" as="targetPoint" />
          </mxGeometry>
        </mxCell>
        <mxCell id="4TZB-WGcxCzN_EBqIF76-23" value="Год выпуска" style="ellipse;whiteSpace=wrap;html=1;align=center;" parent="1" vertex="1">
          <mxGeometry x="800" y="410" width="100" height="40" as="geometry" />
        </mxCell>
        <mxCell id="4TZB-WGcxCzN_EBqIF76-24" value="Номер экземпляра" style="ellipse;whiteSpace=wrap;html=1;align=center;fontStyle=4" parent="1" vertex="1">
          <mxGeometry x="588" y="755" width="100" height="40" as="geometry" />
        </mxCell>
        <mxCell id="4TZB-WGcxCzN_EBqIF76-28" value="Номер комнаты" style="ellipse;whiteSpace=wrap;html=1;align=center;" parent="1" vertex="1">
          <mxGeometry x="460" y="715" width="100" height="40" as="geometry" />
        </mxCell>
        <mxCell id="4TZB-WGcxCzN_EBqIF76-29" value="&lt;div&gt;Номер стелажа&lt;/div&gt;" style="ellipse;whiteSpace=wrap;html=1;align=center;" parent="1" vertex="1">
          <mxGeometry x="260" y="715" width="100" height="40" as="geometry" />
        </mxCell>
        <mxCell id="4TZB-WGcxCzN_EBqIF76-30" value="Номер полки" style="ellipse;whiteSpace=wrap;html=1;align=center;" parent="1" vertex="1">
          <mxGeometry x="360" y="730" width="100" height="40" as="geometry" />
        </mxCell>
        <mxCell id="4TZB-WGcxCzN_EBqIF76-33" value="" style="endArrow=none;html=1;rounded=0;entryX=0;entryY=0;entryDx=0;entryDy=0;exitX=0.75;exitY=1;exitDx=0;exitDy=0;" parent="1" source="DrRs_UDzFUxH884JwZqi-2" target="4TZB-WGcxCzN_EBqIF76-28" edge="1">
          <mxGeometry relative="1" as="geometry">
            <mxPoint x="588" y="802" as="sourcePoint" />
            <mxPoint x="552" y="861.35" as="targetPoint" />
          </mxGeometry>
        </mxCell>
        <mxCell id="4TZB-WGcxCzN_EBqIF76-34" value="" style="endArrow=none;html=1;rounded=0;exitX=0.5;exitY=0;exitDx=0;exitDy=0;entryX=0.5;entryY=1;entryDx=0;entryDy=0;" parent="1" source="4TZB-WGcxCzN_EBqIF76-30" target="DrRs_UDzFUxH884JwZqi-2" edge="1">
          <mxGeometry relative="1" as="geometry">
            <mxPoint x="462" y="901.35" as="sourcePoint" />
            <mxPoint x="548" y="800" as="targetPoint" />
          </mxGeometry>
        </mxCell>
        <mxCell id="4TZB-WGcxCzN_EBqIF76-35" value="" style="endArrow=none;html=1;rounded=0;entryX=1;entryY=0;entryDx=0;entryDy=0;exitX=0.25;exitY=1;exitDx=0;exitDy=0;" parent="1" source="DrRs_UDzFUxH884JwZqi-2" target="4TZB-WGcxCzN_EBqIF76-29" edge="1">
          <mxGeometry relative="1" as="geometry">
            <mxPoint x="328" y="790" as="sourcePoint" />
            <mxPoint x="812" y="701.35" as="targetPoint" />
          </mxGeometry>
        </mxCell>
        <mxCell id="4TZB-WGcxCzN_EBqIF76-39" value="" style="endArrow=none;html=1;rounded=0;exitX=0;exitY=0.5;exitDx=0;exitDy=0;entryX=1;entryY=0.5;entryDx=0;entryDy=0;" parent="1" source="kRo_N9MMr0cQoMARdV8Y-3" target="PKeGHHdxVmDz_WfXFV7r-4" edge="1">
          <mxGeometry relative="1" as="geometry">
            <mxPoint x="794" y="260" as="sourcePoint" />
            <mxPoint x="1330" y="540" as="targetPoint" />
          </mxGeometry>
        </mxCell>
        <mxCell id="4TZB-WGcxCzN_EBqIF76-41" value="" style="endArrow=none;html=1;rounded=0;exitX=1;exitY=0.5;exitDx=0;exitDy=0;entryX=0;entryY=1;entryDx=0;entryDy=0;" parent="1" source="4TZB-WGcxCzN_EBqIF76-23" target="PKeGHHdxVmDz_WfXFV7r-2" edge="1">
          <mxGeometry relative="1" as="geometry">
            <mxPoint x="1196" y="580" as="sourcePoint" />
            <mxPoint x="1356" y="580" as="targetPoint" />
          </mxGeometry>
        </mxCell>
        <mxCell id="4TZB-WGcxCzN_EBqIF76-42" value="" style="endArrow=none;html=1;rounded=0;exitX=1;exitY=0.5;exitDx=0;exitDy=0;entryX=0;entryY=1;entryDx=0;entryDy=0;" parent="1" source="4TZB-WGcxCzN_EBqIF76-24" target="kRo_N9MMr0cQoMARdV8Y-2" edge="1">
          <mxGeometry relative="1" as="geometry">
            <mxPoint x="1196" y="740" as="sourcePoint" />
            <mxPoint x="966" y="670" as="targetPoint" />
          </mxGeometry>
        </mxCell>
        <mxCell id="4TZB-WGcxCzN_EBqIF76-45" value="Количество книг на руках" style="ellipse;whiteSpace=wrap;html=1;align=center;" parent="1" vertex="1">
          <mxGeometry x="1846" y="650" width="100" height="40" as="geometry" />
        </mxCell>
        <mxCell id="4TZB-WGcxCzN_EBqIF76-46" value="" style="endArrow=none;html=1;rounded=0;entryX=0;entryY=0.5;entryDx=0;entryDy=0;" parent="1" target="4TZB-WGcxCzN_EBqIF76-45" edge="1">
          <mxGeometry relative="1" as="geometry">
            <mxPoint x="1646" y="670" as="sourcePoint" />
            <mxPoint x="1356" y="710" as="targetPoint" />
          </mxGeometry>
        </mxCell>
        <mxCell id="4TZB-WGcxCzN_EBqIF76-47" value="&lt;div&gt;Дата выдачи&lt;/div&gt;" style="ellipse;whiteSpace=wrap;html=1;align=center;" parent="1" vertex="1">
          <mxGeometry x="1286" y="740" width="100" height="40" as="geometry" />
        </mxCell>
        <mxCell id="4TZB-WGcxCzN_EBqIF76-49" value="" style="endArrow=none;html=1;rounded=0;entryX=1;entryY=1;entryDx=0;entryDy=0;exitX=0.5;exitY=0;exitDx=0;exitDy=0;" parent="1" source="4TZB-WGcxCzN_EBqIF76-47" target="p1_Be9C10OXRyCUgE8wA-16" edge="1">
          <mxGeometry relative="1" as="geometry">
            <mxPoint x="1296" y="750" as="sourcePoint" />
            <mxPoint x="1356" y="710" as="targetPoint" />
          </mxGeometry>
        </mxCell>
        <mxCell id="4TZB-WGcxCzN_EBqIF76-65" value="Номер операции" style="ellipse;whiteSpace=wrap;html=1;align=center;fontStyle=4;" parent="1" vertex="1">
          <mxGeometry x="1256" y="570" width="100" height="40" as="geometry" />
        </mxCell>
        <mxCell id="4TZB-WGcxCzN_EBqIF76-67" value="" style="endArrow=none;html=1;rounded=0;entryX=0.5;entryY=1;entryDx=0;entryDy=0;exitX=0.5;exitY=0;exitDx=0;exitDy=0;" parent="1" source="p1_Be9C10OXRyCUgE8wA-16" target="4TZB-WGcxCzN_EBqIF76-65" edge="1">
          <mxGeometry relative="1" as="geometry">
            <mxPoint x="1196" y="710" as="sourcePoint" />
            <mxPoint x="1356" y="710" as="targetPoint" />
          </mxGeometry>
        </mxCell>
        <mxCell id="PKeGHHdxVmDz_WfXFV7r-2" value="Издание книги" style="whiteSpace=wrap;html=1;align=center;" parent="1" vertex="1">
          <mxGeometry x="966" y="330" width="100" height="40" as="geometry" />
        </mxCell>
        <mxCell id="PKeGHHdxVmDz_WfXFV7r-4" value="Место издания" style="ellipse;whiteSpace=wrap;html=1;align=center;" parent="1" vertex="1">
          <mxGeometry x="634" y="280" width="100" height="40" as="geometry" />
        </mxCell>
        <mxCell id="PKeGHHdxVmDz_WfXFV7r-6" value="Состояние экземпляра" style="ellipse;whiteSpace=wrap;html=1;align=center;" parent="1" vertex="1">
          <mxGeometry x="710" y="845" width="100" height="40" as="geometry" />
        </mxCell>
        <mxCell id="PKeGHHdxVmDz_WfXFV7r-7" value="" style="endArrow=none;html=1;rounded=0;exitX=1;exitY=0;exitDx=0;exitDy=0;entryX=0;entryY=1;entryDx=0;entryDy=0;" parent="1" source="PKeGHHdxVmDz_WfXFV7r-6" target="kRo_N9MMr0cQoMARdV8Y-2" edge="1">
          <mxGeometry relative="1" as="geometry">
            <mxPoint x="1336" y="580" as="sourcePoint" />
            <mxPoint x="966" y="670" as="targetPoint" />
          </mxGeometry>
        </mxCell>
        <mxCell id="PKeGHHdxVmDz_WfXFV7r-12" value="Наличие экземпляра" style="ellipse;whiteSpace=wrap;html=1;align=center;" parent="1" vertex="1">
          <mxGeometry x="648" y="805" width="100" height="40" as="geometry" />
        </mxCell>
        <mxCell id="PKeGHHdxVmDz_WfXFV7r-13" value="" style="endArrow=none;html=1;rounded=0;entryX=0;entryY=1;entryDx=0;entryDy=0;exitX=1;exitY=0.5;exitDx=0;exitDy=0;" parent="1" source="PKeGHHdxVmDz_WfXFV7r-12" target="kRo_N9MMr0cQoMARdV8Y-2" edge="1">
          <mxGeometry relative="1" as="geometry">
            <mxPoint x="906" y="630" as="sourcePoint" />
            <mxPoint x="966" y="670" as="targetPoint" />
          </mxGeometry>
        </mxCell>
        <mxCell id="PKeGHHdxVmDz_WfXFV7r-28" value="" style="endArrow=none;html=1;rounded=0;exitX=0.075;exitY=0.769;exitDx=0;exitDy=0;entryX=1;entryY=0;entryDx=0;entryDy=0;exitPerimeter=0;" parent="1" source="kRo_N9MMr0cQoMARdV8Y-13" target="kRo_N9MMr0cQoMARdV8Y-12" edge="1">
          <mxGeometry relative="1" as="geometry">
            <mxPoint x="1396" y="240" as="sourcePoint" />
            <mxPoint x="1320" y="370" as="targetPoint" />
          </mxGeometry>
        </mxCell>
        <mxCell id="PKeGHHdxVmDz_WfXFV7r-47" value="" style="endArrow=none;html=1;rounded=0;entryX=0.5;entryY=1;entryDx=0;entryDy=0;exitX=0.5;exitY=0;exitDx=0;exitDy=0;" parent="1" source="PKeGHHdxVmDz_WfXFV7r-2" target="p1_Be9C10OXRyCUgE8wA-28" edge="1">
          <mxGeometry relative="1" as="geometry">
            <mxPoint x="1299" y="400" as="sourcePoint" />
            <mxPoint x="1459" y="400" as="targetPoint" />
          </mxGeometry>
        </mxCell>
        <mxCell id="PKeGHHdxVmDz_WfXFV7r-48" value="M" style="resizable=0;html=1;whiteSpace=wrap;align=left;verticalAlign=bottom;" parent="PKeGHHdxVmDz_WfXFV7r-47" connectable="0" vertex="1">
          <mxGeometry x="-1" relative="1" as="geometry">
            <mxPoint x="14" y="-10" as="offset" />
          </mxGeometry>
        </mxCell>
        <mxCell id="PKeGHHdxVmDz_WfXFV7r-53" value="" style="endArrow=none;html=1;rounded=0;exitX=0.5;exitY=1;exitDx=0;exitDy=0;" parent="1" target="kRo_N9MMr0cQoMARdV8Y-40" edge="1">
          <mxGeometry relative="1" as="geometry">
            <mxPoint x="1016" y="690" as="sourcePoint" />
            <mxPoint x="1016" y="830" as="targetPoint" />
          </mxGeometry>
        </mxCell>
        <mxCell id="PKeGHHdxVmDz_WfXFV7r-54" value="M" style="resizable=0;html=1;whiteSpace=wrap;align=left;verticalAlign=bottom;" parent="PKeGHHdxVmDz_WfXFV7r-53" connectable="0" vertex="1">
          <mxGeometry x="-1" relative="1" as="geometry">
            <mxPoint x="14" y="20" as="offset" />
          </mxGeometry>
        </mxCell>
        <mxCell id="PKeGHHdxVmDz_WfXFV7r-63" value="Источник книги" style="ellipse;whiteSpace=wrap;html=1;align=center;" parent="1" vertex="1">
          <mxGeometry x="1650" y="230" width="100" height="40" as="geometry" />
        </mxCell>
        <mxCell id="PKeGHHdxVmDz_WfXFV7r-64" value="" style="endArrow=none;html=1;rounded=0;entryX=0;entryY=1;entryDx=0;entryDy=0;exitX=1;exitY=0;exitDx=0;exitDy=0;" parent="1" source="kRo_N9MMr0cQoMARdV8Y-12" target="PKeGHHdxVmDz_WfXFV7r-63" edge="1">
          <mxGeometry relative="1" as="geometry">
            <mxPoint x="1460" y="370" as="sourcePoint" />
            <mxPoint x="1282" y="1050" as="targetPoint" />
          </mxGeometry>
        </mxCell>
        <mxCell id="PKeGHHdxVmDz_WfXFV7r-65" value="&lt;div&gt;Дата&lt;/div&gt;" style="ellipse;whiteSpace=wrap;html=1;align=center;" parent="1" vertex="1">
          <mxGeometry x="1499" y="135" width="100" height="40" as="geometry" />
        </mxCell>
        <mxCell id="PKeGHHdxVmDz_WfXFV7r-67" value="" style="endArrow=none;html=1;rounded=0;entryX=0;entryY=0.5;entryDx=0;entryDy=0;exitX=1;exitY=0.5;exitDx=0;exitDy=0;" parent="1" source="kRo_N9MMr0cQoMARdV8Y-5" target="PKeGHHdxVmDz_WfXFV7r-65" edge="1">
          <mxGeometry relative="1" as="geometry">
            <mxPoint x="1105" y="725" as="sourcePoint" />
            <mxPoint x="1265" y="725" as="targetPoint" />
          </mxGeometry>
        </mxCell>
        <mxCell id="PKeGHHdxVmDz_WfXFV7r-69" value="Номер накладной" style="ellipse;whiteSpace=wrap;html=1;align=center;fontStyle=4;" parent="1" vertex="1">
          <mxGeometry x="1349" y="45" width="100" height="40" as="geometry" />
        </mxCell>
        <mxCell id="PKeGHHdxVmDz_WfXFV7r-72" value="" style="endArrow=none;html=1;rounded=0;entryX=0.5;entryY=1;entryDx=0;entryDy=0;exitX=0.5;exitY=0;exitDx=0;exitDy=0;" parent="1" source="kRo_N9MMr0cQoMARdV8Y-5" target="PKeGHHdxVmDz_WfXFV7r-69" edge="1">
          <mxGeometry relative="1" as="geometry">
            <mxPoint x="1175" y="745" as="sourcePoint" />
            <mxPoint x="1335" y="745" as="targetPoint" />
          </mxGeometry>
        </mxCell>
        <mxCell id="kRo_N9MMr0cQoMARdV8Y-2" value="&lt;div&gt;Экземпляр книги&lt;/div&gt;" style="whiteSpace=wrap;html=1;align=center;" parent="1" vertex="1">
          <mxGeometry x="966" y="650" width="100" height="40" as="geometry" />
        </mxCell>
        <mxCell id="kRo_N9MMr0cQoMARdV8Y-3" value="Издательство" style="shape=parallelogram;perimeter=parallelogramPerimeter;whiteSpace=wrap;html=1;fixedSize=1;" parent="1" vertex="1">
          <mxGeometry x="796" y="230" width="104" height="50" as="geometry" />
        </mxCell>
        <mxCell id="kRo_N9MMr0cQoMARdV8Y-5" value="Накладная" style="whiteSpace=wrap;html=1;align=center;" parent="1" vertex="1">
          <mxGeometry x="1356" y="130" width="100" height="40" as="geometry" />
        </mxCell>
        <mxCell id="kRo_N9MMr0cQoMARdV8Y-6" value="" style="endArrow=none;html=1;rounded=0;entryX=0;entryY=0.5;entryDx=0;entryDy=0;exitX=1;exitY=0.5;exitDx=0;exitDy=0;" parent="1" source="PKeGHHdxVmDz_WfXFV7r-2" target="kRo_N9MMr0cQoMARdV8Y-5" edge="1">
          <mxGeometry relative="1" as="geometry">
            <mxPoint x="930" y="530" as="sourcePoint" />
            <mxPoint x="1090" y="530" as="targetPoint" />
          </mxGeometry>
        </mxCell>
        <mxCell id="kRo_N9MMr0cQoMARdV8Y-7" value="M" style="resizable=0;html=1;whiteSpace=wrap;align=left;verticalAlign=bottom;" parent="kRo_N9MMr0cQoMARdV8Y-6" connectable="0" vertex="1">
          <mxGeometry x="-1" relative="1" as="geometry">
            <mxPoint x="24" y="20" as="offset" />
          </mxGeometry>
        </mxCell>
        <mxCell id="kRo_N9MMr0cQoMARdV8Y-8" value="M" style="resizable=0;html=1;whiteSpace=wrap;align=right;verticalAlign=bottom;" parent="kRo_N9MMr0cQoMARdV8Y-6" connectable="0" vertex="1">
          <mxGeometry x="1" relative="1" as="geometry">
            <mxPoint x="-6" y="50" as="offset" />
          </mxGeometry>
        </mxCell>
        <mxCell id="kRo_N9MMr0cQoMARdV8Y-12" value="Акт постановки на учёт" style="whiteSpace=wrap;html=1;align=center;" parent="1" vertex="1">
          <mxGeometry x="1420" y="350" width="100" height="40" as="geometry" />
        </mxCell>
        <mxCell id="kRo_N9MMr0cQoMARdV8Y-13" value="Номер акта постановки на учет" style="ellipse;whiteSpace=wrap;html=1;align=center;fontStyle=4;" parent="1" vertex="1">
          <mxGeometry x="1660" y="280" width="100" height="40" as="geometry" />
        </mxCell>
        <mxCell id="kRo_N9MMr0cQoMARdV8Y-21" value="&lt;div&gt;Дата возврата&lt;/div&gt;&lt;div&gt;(факт)&lt;br&gt;&lt;/div&gt;" style="ellipse;whiteSpace=wrap;html=1;align=center;" parent="1" vertex="1">
          <mxGeometry x="1420" y="700" width="100" height="40" as="geometry" />
        </mxCell>
        <mxCell id="kRo_N9MMr0cQoMARdV8Y-22" style="edgeStyle=orthogonalEdgeStyle;rounded=0;orthogonalLoop=1;jettySize=auto;html=1;exitX=0.5;exitY=1;exitDx=0;exitDy=0;" parent="1" source="4TZB-WGcxCzN_EBqIF76-65" target="4TZB-WGcxCzN_EBqIF76-65" edge="1">
          <mxGeometry relative="1" as="geometry" />
        </mxCell>
        <mxCell id="kRo_N9MMr0cQoMARdV8Y-24" value="" style="endArrow=none;html=1;rounded=0;exitX=1;exitY=1;exitDx=0;exitDy=0;entryX=0;entryY=0.5;entryDx=0;entryDy=0;" parent="1" source="p1_Be9C10OXRyCUgE8wA-16" target="kRo_N9MMr0cQoMARdV8Y-21" edge="1">
          <mxGeometry relative="1" as="geometry">
            <mxPoint x="1260" y="710" as="sourcePoint" />
            <mxPoint x="1420" y="710" as="targetPoint" />
          </mxGeometry>
        </mxCell>
        <mxCell id="kRo_N9MMr0cQoMARdV8Y-27" value="" style="endArrow=none;html=1;rounded=0;entryX=0;entryY=0;entryDx=0;entryDy=0;exitX=1;exitY=1;exitDx=0;exitDy=0;" parent="1" source="p1_Be9C10OXRyCUgE8wA-16" target="DrRs_UDzFUxH884JwZqi-16" edge="1">
          <mxGeometry relative="1" as="geometry">
            <mxPoint x="1260" y="710" as="sourcePoint" />
            <mxPoint x="1500.6446609406726" y="775.8578643762689" as="targetPoint" />
          </mxGeometry>
        </mxCell>
        <mxCell id="kRo_N9MMr0cQoMARdV8Y-31" value="" style="endArrow=none;html=1;rounded=0;exitX=0;exitY=0.5;exitDx=0;exitDy=0;entryX=1;entryY=0.5;entryDx=0;entryDy=0;" parent="1" source="PKeGHHdxVmDz_WfXFV7r-2" target="kRo_N9MMr0cQoMARdV8Y-3" edge="1">
          <mxGeometry relative="1" as="geometry">
            <mxPoint x="970" y="355" as="sourcePoint" />
            <mxPoint x="920" y="300" as="targetPoint" />
          </mxGeometry>
        </mxCell>
        <mxCell id="kRo_N9MMr0cQoMARdV8Y-32" value="1" style="resizable=0;html=1;whiteSpace=wrap;align=left;verticalAlign=bottom;" parent="kRo_N9MMr0cQoMARdV8Y-31" connectable="0" vertex="1">
          <mxGeometry x="-1" relative="1" as="geometry">
            <mxPoint x="-6" y="-30" as="offset" />
          </mxGeometry>
        </mxCell>
        <mxCell id="kRo_N9MMr0cQoMARdV8Y-40" value="Акт списания" style="whiteSpace=wrap;html=1;align=center;" parent="1" vertex="1">
          <mxGeometry x="966" y="790" width="100" height="40" as="geometry" />
        </mxCell>
        <mxCell id="kRo_N9MMr0cQoMARdV8Y-41" value="" style="endArrow=none;html=1;rounded=0;entryX=0;entryY=1;entryDx=0;entryDy=0;exitX=1;exitY=0;exitDx=0;exitDy=0;" parent="1" source="kRo_N9MMr0cQoMARdV8Y-42" target="kRo_N9MMr0cQoMARdV8Y-40" edge="1">
          <mxGeometry relative="1" as="geometry">
            <mxPoint x="910" y="870" as="sourcePoint" />
            <mxPoint x="926" y="889.38" as="targetPoint" />
          </mxGeometry>
        </mxCell>
        <mxCell id="kRo_N9MMr0cQoMARdV8Y-42" value="Номер акта" style="ellipse;whiteSpace=wrap;html=1;align=center;fontStyle=4;" parent="1" vertex="1">
          <mxGeometry x="860" y="860" width="100" height="40" as="geometry" />
        </mxCell>
        <mxCell id="kRo_N9MMr0cQoMARdV8Y-43" value="Причина списания" style="ellipse;whiteSpace=wrap;html=1;align=center;" parent="1" vertex="1">
          <mxGeometry x="966" y="870" width="100" height="40" as="geometry" />
        </mxCell>
        <mxCell id="kRo_N9MMr0cQoMARdV8Y-44" value="" style="endArrow=none;html=1;rounded=0;exitX=0.5;exitY=1;exitDx=0;exitDy=0;entryX=0.5;entryY=0;entryDx=0;entryDy=0;" parent="1" source="kRo_N9MMr0cQoMARdV8Y-40" target="kRo_N9MMr0cQoMARdV8Y-43" edge="1">
          <mxGeometry relative="1" as="geometry">
            <mxPoint x="1060" y="810" as="sourcePoint" />
            <mxPoint x="1220" y="810" as="targetPoint" />
          </mxGeometry>
        </mxCell>
        <mxCell id="kRo_N9MMr0cQoMARdV8Y-45" value="ID сотрудника" style="ellipse;whiteSpace=wrap;html=1;align=center;" parent="1" vertex="1">
          <mxGeometry x="989" y="1090" width="100" height="40" as="geometry" />
        </mxCell>
        <mxCell id="kRo_N9MMr0cQoMARdV8Y-50" style="edgeStyle=orthogonalEdgeStyle;rounded=0;orthogonalLoop=1;jettySize=auto;html=1;exitX=0.5;exitY=1;exitDx=0;exitDy=0;" parent="1" source="4TZB-WGcxCzN_EBqIF76-47" target="4TZB-WGcxCzN_EBqIF76-47" edge="1">
          <mxGeometry relative="1" as="geometry" />
        </mxCell>
        <mxCell id="kRo_N9MMr0cQoMARdV8Y-51" value="Сотрудник" style="whiteSpace=wrap;html=1;align=center;" parent="1" vertex="1">
          <mxGeometry x="1193" y="1040" width="100" height="40" as="geometry" />
        </mxCell>
        <mxCell id="kRo_N9MMr0cQoMARdV8Y-53" value="" style="endArrow=none;html=1;rounded=0;exitX=0.75;exitY=0;exitDx=0;exitDy=0;entryX=0;entryY=1;entryDx=0;entryDy=0;" parent="1" source="kRo_N9MMr0cQoMARdV8Y-51" target="p1_Be9C10OXRyCUgE8wA-16" edge="1">
          <mxGeometry relative="1" as="geometry">
            <mxPoint x="1060" y="660" as="sourcePoint" />
            <mxPoint x="1220" y="660" as="targetPoint" />
          </mxGeometry>
        </mxCell>
        <mxCell id="kRo_N9MMr0cQoMARdV8Y-54" value="M" style="resizable=0;html=1;whiteSpace=wrap;align=left;verticalAlign=bottom;" parent="kRo_N9MMr0cQoMARdV8Y-53" connectable="0" vertex="1">
          <mxGeometry x="-1" relative="1" as="geometry">
            <mxPoint x="-25" y="-10" as="offset" />
          </mxGeometry>
        </mxCell>
        <mxCell id="kRo_N9MMr0cQoMARdV8Y-56" value="ФИО" style="ellipse;whiteSpace=wrap;html=1;align=center;" parent="1" vertex="1">
          <mxGeometry x="1249" y="1110" width="100" height="40" as="geometry" />
        </mxCell>
        <mxCell id="kRo_N9MMr0cQoMARdV8Y-57" value="Должность" style="ellipse;whiteSpace=wrap;html=1;align=center;" parent="1" vertex="1">
          <mxGeometry x="1143" y="1110" width="100" height="40" as="geometry" />
        </mxCell>
        <mxCell id="kRo_N9MMr0cQoMARdV8Y-58" value="" style="endArrow=none;html=1;rounded=0;entryX=0.5;entryY=0;entryDx=0;entryDy=0;exitX=0.5;exitY=1;exitDx=0;exitDy=0;" parent="1" source="kRo_N9MMr0cQoMARdV8Y-51" target="kRo_N9MMr0cQoMARdV8Y-57" edge="1">
          <mxGeometry relative="1" as="geometry">
            <mxPoint x="1097" y="910" as="sourcePoint" />
            <mxPoint x="1257" y="910" as="targetPoint" />
          </mxGeometry>
        </mxCell>
        <mxCell id="kRo_N9MMr0cQoMARdV8Y-59" value="" style="endArrow=none;html=1;rounded=0;entryX=0.5;entryY=0;entryDx=0;entryDy=0;exitX=0.5;exitY=1;exitDx=0;exitDy=0;" parent="1" source="kRo_N9MMr0cQoMARdV8Y-51" target="kRo_N9MMr0cQoMARdV8Y-56" edge="1">
          <mxGeometry relative="1" as="geometry">
            <mxPoint x="1243" y="900" as="sourcePoint" />
            <mxPoint x="1233" y="730" as="targetPoint" />
          </mxGeometry>
        </mxCell>
        <mxCell id="kRo_N9MMr0cQoMARdV8Y-65" value="" style="endArrow=none;html=1;rounded=0;entryX=1;entryY=0;entryDx=0;entryDy=0;exitX=0;exitY=0.5;exitDx=0;exitDy=0;" parent="1" source="kRo_N9MMr0cQoMARdV8Y-12" target="kRo_N9MMr0cQoMARdV8Y-2" edge="1">
          <mxGeometry relative="1" as="geometry">
            <mxPoint x="1330" y="490" as="sourcePoint" />
            <mxPoint x="1240" y="550" as="targetPoint" />
            <Array as="points" />
          </mxGeometry>
        </mxCell>
        <mxCell id="DrRs_UDzFUxH884JwZqi-1" value="Хранится" style="rhombus;whiteSpace=wrap;html=1;" parent="1" vertex="1">
          <mxGeometry x="620" y="635" width="140" height="70" as="geometry" />
        </mxCell>
        <mxCell id="DrRs_UDzFUxH884JwZqi-2" value="Место&amp;nbsp; хранения" style="whiteSpace=wrap;html=1;align=center;" parent="1" vertex="1">
          <mxGeometry x="360" y="650" width="100" height="40" as="geometry" />
        </mxCell>
        <mxCell id="DrRs_UDzFUxH884JwZqi-4" value="" style="endArrow=none;html=1;rounded=0;entryX=0;entryY=0.5;entryDx=0;entryDy=0;exitX=1;exitY=0.5;exitDx=0;exitDy=0;" parent="1" source="DrRs_UDzFUxH884JwZqi-1" target="kRo_N9MMr0cQoMARdV8Y-2" edge="1">
          <mxGeometry relative="1" as="geometry">
            <mxPoint x="1050" y="680" as="sourcePoint" />
            <mxPoint x="1210" y="680" as="targetPoint" />
          </mxGeometry>
        </mxCell>
        <mxCell id="DrRs_UDzFUxH884JwZqi-5" value="1" style="resizable=0;html=1;whiteSpace=wrap;align=right;verticalAlign=bottom;" parent="DrRs_UDzFUxH884JwZqi-4" connectable="0" vertex="1">
          <mxGeometry x="1" relative="1" as="geometry">
            <mxPoint x="-16" y="-10" as="offset" />
          </mxGeometry>
        </mxCell>
        <mxCell id="DrRs_UDzFUxH884JwZqi-6" value="" style="endArrow=none;html=1;rounded=0;entryX=0;entryY=0.5;entryDx=0;entryDy=0;exitX=1;exitY=0.5;exitDx=0;exitDy=0;" parent="1" source="DrRs_UDzFUxH884JwZqi-2" target="DrRs_UDzFUxH884JwZqi-1" edge="1">
          <mxGeometry relative="1" as="geometry">
            <mxPoint x="898" y="570" as="sourcePoint" />
            <mxPoint x="1058" y="570" as="targetPoint" />
          </mxGeometry>
        </mxCell>
        <mxCell id="DrRs_UDzFUxH884JwZqi-7" value="M" style="resizable=0;html=1;whiteSpace=wrap;align=left;verticalAlign=bottom;" parent="DrRs_UDzFUxH884JwZqi-6" connectable="0" vertex="1">
          <mxGeometry x="-1" relative="1" as="geometry">
            <mxPoint x="12" y="-10" as="offset" />
          </mxGeometry>
        </mxCell>
        <mxCell id="DrRs_UDzFUxH884JwZqi-10" value="" style="endArrow=none;html=1;rounded=0;entryX=0;entryY=0.5;entryDx=0;entryDy=0;exitX=1;exitY=0.5;exitDx=0;exitDy=0;" parent="1" source="kRo_N9MMr0cQoMARdV8Y-45" target="kRo_N9MMr0cQoMARdV8Y-51" edge="1">
          <mxGeometry relative="1" as="geometry">
            <mxPoint x="993" y="750" as="sourcePoint" />
            <mxPoint x="1153" y="750" as="targetPoint" />
          </mxGeometry>
        </mxCell>
        <mxCell id="DrRs_UDzFUxH884JwZqi-14" value="Год написания" style="ellipse;whiteSpace=wrap;html=1;align=center;" parent="1" vertex="1">
          <mxGeometry x="966" y="-10" width="100" height="40" as="geometry" />
        </mxCell>
        <mxCell id="DrRs_UDzFUxH884JwZqi-15" value="" style="endArrow=none;html=1;rounded=0;entryX=0.5;entryY=1;entryDx=0;entryDy=0;exitX=0.5;exitY=0;exitDx=0;exitDy=0;" parent="1" source="p1_Be9C10OXRyCUgE8wA-28" target="DrRs_UDzFUxH884JwZqi-14" edge="1">
          <mxGeometry relative="1" as="geometry">
            <mxPoint x="1070" y="270" as="sourcePoint" />
            <mxPoint x="1230" y="270" as="targetPoint" />
          </mxGeometry>
        </mxCell>
        <mxCell id="DrRs_UDzFUxH884JwZqi-16" value="&lt;div&gt;Дата возврата&lt;/div&gt;&lt;div&gt;(план)&lt;br&gt;&lt;/div&gt;" style="ellipse;whiteSpace=wrap;html=1;align=center;" parent="1" vertex="1">
          <mxGeometry x="1420" y="770" width="100" height="40" as="geometry" />
        </mxCell>
        <mxCell id="DrRs_UDzFUxH884JwZqi-17" value="Штраф" style="ellipse;whiteSpace=wrap;html=1;align=center;" parent="1" vertex="1">
          <mxGeometry x="1406" y="570" width="100" height="40" as="geometry" />
        </mxCell>
        <mxCell id="DrRs_UDzFUxH884JwZqi-18" value="" style="endArrow=none;html=1;rounded=0;exitX=0.22;exitY=0.925;exitDx=0;exitDy=0;entryX=1;entryY=0;entryDx=0;entryDy=0;exitPerimeter=0;" parent="1" source="DrRs_UDzFUxH884JwZqi-17" target="p1_Be9C10OXRyCUgE8wA-16" edge="1">
          <mxGeometry relative="1" as="geometry">
            <mxPoint x="1120" y="620" as="sourcePoint" />
            <mxPoint x="1280" y="620" as="targetPoint" />
          </mxGeometry>
        </mxCell>
        <mxCell id="DrRs_UDzFUxH884JwZqi-22" value="" style="endArrow=none;html=1;rounded=0;" parent="1" edge="1">
          <mxGeometry width="50" height="50" relative="1" as="geometry">
            <mxPoint x="940" y="340" as="sourcePoint" />
            <mxPoint x="960" y="320" as="targetPoint" />
          </mxGeometry>
        </mxCell>
        <mxCell id="DrRs_UDzFUxH884JwZqi-23" value="" style="endArrow=none;html=1;rounded=0;" parent="1" edge="1">
          <mxGeometry width="50" height="50" relative="1" as="geometry">
            <mxPoint x="1000" y="320" as="sourcePoint" />
            <mxPoint x="1030" y="320" as="targetPoint" />
          </mxGeometry>
        </mxCell>
        <mxCell id="DrRs_UDzFUxH884JwZqi-24" value="" style="endArrow=none;html=1;rounded=0;" parent="1" edge="1">
          <mxGeometry width="50" height="50" relative="1" as="geometry">
            <mxPoint x="1090" y="350" as="sourcePoint" />
            <mxPoint x="1070" y="320" as="targetPoint" />
          </mxGeometry>
        </mxCell>
        <mxCell id="DrRs_UDzFUxH884JwZqi-25" value="" style="endArrow=none;html=1;rounded=0;" parent="1" edge="1">
          <mxGeometry width="50" height="50" relative="1" as="geometry">
            <mxPoint x="1340" y="180" as="sourcePoint" />
            <mxPoint x="1320" y="150" as="targetPoint" />
          </mxGeometry>
        </mxCell>
        <mxCell id="DrRs_UDzFUxH884JwZqi-26" value="" style="endArrow=none;html=1;rounded=0;" parent="1" edge="1">
          <mxGeometry relative="1" as="geometry">
            <mxPoint x="1000" y="190" as="sourcePoint" />
            <mxPoint x="1030" y="190" as="targetPoint" />
          </mxGeometry>
        </mxCell>
        <mxCell id="DrRs_UDzFUxH884JwZqi-27" value="1" style="resizable=0;html=1;whiteSpace=wrap;align=right;verticalAlign=bottom;" parent="DrRs_UDzFUxH884JwZqi-26" connectable="0" vertex="1">
          <mxGeometry x="1" relative="1" as="geometry">
            <mxPoint x="10" as="offset" />
          </mxGeometry>
        </mxCell>
        <mxCell id="DrRs_UDzFUxH884JwZqi-28" value="" style="endArrow=none;html=1;rounded=0;" parent="1" edge="1">
          <mxGeometry relative="1" as="geometry">
            <mxPoint x="950" y="660" as="sourcePoint" />
            <mxPoint x="950" y="680" as="targetPoint" />
          </mxGeometry>
        </mxCell>
        <mxCell id="DrRs_UDzFUxH884JwZqi-29" value="" style="endArrow=none;html=1;rounded=0;" parent="1" edge="1">
          <mxGeometry relative="1" as="geometry">
            <mxPoint x="480" y="680" as="sourcePoint" />
            <mxPoint x="480" y="660" as="targetPoint" />
          </mxGeometry>
        </mxCell>
        <mxCell id="DrRs_UDzFUxH884JwZqi-30" value="" style="endArrow=none;html=1;rounded=0;" parent="1" edge="1">
          <mxGeometry relative="1" as="geometry">
            <mxPoint x="1000" y="700" as="sourcePoint" />
            <mxPoint x="1030" y="700" as="targetPoint" />
          </mxGeometry>
        </mxCell>
        <mxCell id="DrRs_UDzFUxH884JwZqi-31" value="" style="endArrow=none;html=1;rounded=0;" parent="1" edge="1">
          <mxGeometry relative="1" as="geometry">
            <mxPoint x="1001" y="780" as="sourcePoint" />
            <mxPoint x="1031" y="780" as="targetPoint" />
          </mxGeometry>
        </mxCell>
        <mxCell id="DrRs_UDzFUxH884JwZqi-32" value="M" style="resizable=0;html=1;whiteSpace=wrap;align=left;verticalAlign=bottom;" parent="DrRs_UDzFUxH884JwZqi-31" connectable="0" vertex="1">
          <mxGeometry x="-1" relative="1" as="geometry">
            <mxPoint x="29" as="offset" />
          </mxGeometry>
        </mxCell>
        <mxCell id="DrRs_UDzFUxH884JwZqi-34" value="" style="endArrow=none;html=1;rounded=0;" parent="1" edge="1">
          <mxGeometry relative="1" as="geometry">
            <mxPoint x="1080" y="660" as="sourcePoint" />
            <mxPoint x="1080" y="680" as="targetPoint" />
          </mxGeometry>
        </mxCell>
        <mxCell id="DrRs_UDzFUxH884JwZqi-35" value="" style="endArrow=none;html=1;rounded=0;" parent="1" edge="1">
          <mxGeometry relative="1" as="geometry">
            <mxPoint x="1000" y="640" as="sourcePoint" />
            <mxPoint x="1030" y="640" as="targetPoint" />
          </mxGeometry>
        </mxCell>
        <mxCell id="DrRs_UDzFUxH884JwZqi-36" value="" style="endArrow=none;html=1;rounded=0;" parent="1" edge="1">
          <mxGeometry relative="1" as="geometry">
            <mxPoint x="1000" y="380" as="sourcePoint" />
            <mxPoint x="1030" y="380" as="targetPoint" />
          </mxGeometry>
        </mxCell>
        <mxCell id="DrRs_UDzFUxH884JwZqi-37" value="1" style="resizable=0;html=1;whiteSpace=wrap;align=right;verticalAlign=bottom;" parent="DrRs_UDzFUxH884JwZqi-36" connectable="0" vertex="1">
          <mxGeometry x="1" relative="1" as="geometry">
            <mxPoint x="10" y="20" as="offset" />
          </mxGeometry>
        </mxCell>
        <mxCell id="DrRs_UDzFUxH884JwZqi-38" value="" style="endArrow=none;html=1;rounded=0;" parent="1" edge="1">
          <mxGeometry relative="1" as="geometry">
            <mxPoint x="1253" y="1030" as="sourcePoint" />
            <mxPoint x="1283" y="1030" as="targetPoint" />
          </mxGeometry>
        </mxCell>
        <mxCell id="DrRs_UDzFUxH884JwZqi-39" value="" style="endArrow=none;html=1;rounded=0;" parent="1" edge="1">
          <mxGeometry relative="1" as="geometry">
            <mxPoint x="1530" y="660" as="sourcePoint" />
            <mxPoint x="1530" y="680" as="targetPoint" />
          </mxGeometry>
        </mxCell>
        <mxCell id="DrRs_UDzFUxH884JwZqi-41" value="Акт дарения" style="whiteSpace=wrap;html=1;align=center;" parent="1" vertex="1">
          <mxGeometry x="750" y="500" width="100" height="40" as="geometry" />
        </mxCell>
        <mxCell id="DrRs_UDzFUxH884JwZqi-42" value="Номер акта дарения" style="ellipse;whiteSpace=wrap;html=1;align=center;fontStyle=4;" parent="1" vertex="1">
          <mxGeometry x="620" y="440" width="100" height="40" as="geometry" />
        </mxCell>
        <mxCell id="DrRs_UDzFUxH884JwZqi-43" value="" style="endArrow=none;html=1;rounded=0;exitX=1;exitY=1;exitDx=0;exitDy=0;entryX=0;entryY=0;entryDx=0;entryDy=0;" parent="1" source="DrRs_UDzFUxH884JwZqi-42" target="DrRs_UDzFUxH884JwZqi-41" edge="1">
          <mxGeometry relative="1" as="geometry">
            <mxPoint x="790" y="540" as="sourcePoint" />
            <mxPoint x="950" y="540" as="targetPoint" />
          </mxGeometry>
        </mxCell>
        <mxCell id="DrRs_UDzFUxH884JwZqi-44" value="" style="endArrow=none;html=1;rounded=0;exitX=1;exitY=1;exitDx=0;exitDy=0;entryX=0.25;entryY=0;entryDx=0;entryDy=0;" parent="1" source="DrRs_UDzFUxH884JwZqi-41" target="kRo_N9MMr0cQoMARdV8Y-2" edge="1">
          <mxGeometry relative="1" as="geometry">
            <mxPoint x="790" y="540" as="sourcePoint" />
            <mxPoint x="950" y="540" as="targetPoint" />
          </mxGeometry>
        </mxCell>
        <mxCell id="DrRs_UDzFUxH884JwZqi-47" value="" style="endArrow=none;html=1;rounded=0;" parent="1" edge="1">
          <mxGeometry relative="1" as="geometry">
            <mxPoint x="1070" y="630" as="sourcePoint" />
            <mxPoint x="1090" y="650" as="targetPoint" />
          </mxGeometry>
        </mxCell>
        <mxCell id="DrRs_UDzFUxH884JwZqi-48" value="M" style="resizable=0;html=1;whiteSpace=wrap;align=right;verticalAlign=bottom;" parent="DrRs_UDzFUxH884JwZqi-47" connectable="0" vertex="1">
          <mxGeometry x="1" relative="1" as="geometry">
            <mxPoint x="-20" y="-20" as="offset" />
          </mxGeometry>
        </mxCell>
        <mxCell id="DrRs_UDzFUxH884JwZqi-49" value="" style="endArrow=none;html=1;rounded=0;" parent="1" edge="1">
          <mxGeometry relative="1" as="geometry">
            <mxPoint x="1410" y="400" as="sourcePoint" />
            <mxPoint x="1390" y="380" as="targetPoint" />
          </mxGeometry>
        </mxCell>
        <mxCell id="DrRs_UDzFUxH884JwZqi-50" value="M" style="resizable=0;html=1;whiteSpace=wrap;align=right;verticalAlign=bottom;" parent="DrRs_UDzFUxH884JwZqi-49" connectable="0" vertex="1">
          <mxGeometry x="1" relative="1" as="geometry" />
        </mxCell>
        <mxCell id="DrRs_UDzFUxH884JwZqi-51" value="" style="endArrow=none;html=1;rounded=0;" parent="1" edge="1">
          <mxGeometry relative="1" as="geometry">
            <mxPoint x="960" y="640" as="sourcePoint" />
            <mxPoint x="980" y="620" as="targetPoint" />
          </mxGeometry>
        </mxCell>
        <mxCell id="DrRs_UDzFUxH884JwZqi-52" value="M" style="resizable=0;html=1;whiteSpace=wrap;align=right;verticalAlign=bottom;" parent="DrRs_UDzFUxH884JwZqi-51" connectable="0" vertex="1">
          <mxGeometry x="1" relative="1" as="geometry" />
        </mxCell>
        <mxCell id="DrRs_UDzFUxH884JwZqi-53" value="" style="endArrow=none;html=1;rounded=0;" parent="1" edge="1">
          <mxGeometry relative="1" as="geometry">
            <mxPoint x="850" y="560" as="sourcePoint" />
            <mxPoint x="870" y="540" as="targetPoint" />
          </mxGeometry>
        </mxCell>
        <mxCell id="DrRs_UDzFUxH884JwZqi-54" value="M" style="resizable=0;html=1;whiteSpace=wrap;align=right;verticalAlign=bottom;" parent="DrRs_UDzFUxH884JwZqi-53" connectable="0" vertex="1">
          <mxGeometry x="1" relative="1" as="geometry">
            <mxPoint x="16" as="offset" />
          </mxGeometry>
        </mxCell>
        <mxCell id="6HvGipflXa48CZ0Cs9Gs-5" value="" style="endArrow=none;html=1;rounded=0;exitX=1;exitY=0.25;exitDx=0;exitDy=0;" parent="1" source="kRo_N9MMr0cQoMARdV8Y-51" edge="1">
          <mxGeometry relative="1" as="geometry">
            <mxPoint x="1170" y="770" as="sourcePoint" />
            <mxPoint x="1960" y="1050" as="targetPoint" />
          </mxGeometry>
        </mxCell>
        <mxCell id="6HvGipflXa48CZ0Cs9Gs-6" value="1" style="resizable=0;html=1;whiteSpace=wrap;align=left;verticalAlign=bottom;" parent="6HvGipflXa48CZ0Cs9Gs-5" connectable="0" vertex="1">
          <mxGeometry x="-1" relative="1" as="geometry">
            <mxPoint x="24" y="-10" as="offset" />
          </mxGeometry>
        </mxCell>
        <mxCell id="6HvGipflXa48CZ0Cs9Gs-8" value="" style="endArrow=none;html=1;rounded=0;" parent="1" edge="1">
          <mxGeometry relative="1" as="geometry">
            <mxPoint x="1320" y="1040" as="sourcePoint" />
            <mxPoint x="1320" y="1060" as="targetPoint" />
          </mxGeometry>
        </mxCell>
        <mxCell id="6HvGipflXa48CZ0Cs9Gs-10" value="" style="endArrow=none;html=1;rounded=0;exitX=1;exitY=0.5;exitDx=0;exitDy=0;" parent="1" source="kRo_N9MMr0cQoMARdV8Y-12" edge="1">
          <mxGeometry relative="1" as="geometry">
            <mxPoint x="1080" y="610" as="sourcePoint" />
            <mxPoint x="1960" y="1050" as="targetPoint" />
            <Array as="points">
              <mxPoint x="1960" y="370" />
            </Array>
          </mxGeometry>
        </mxCell>
        <mxCell id="6HvGipflXa48CZ0Cs9Gs-11" value="M" style="resizable=0;html=1;whiteSpace=wrap;align=left;verticalAlign=bottom;" parent="6HvGipflXa48CZ0Cs9Gs-10" connectable="0" vertex="1">
          <mxGeometry x="-1" relative="1" as="geometry">
            <mxPoint x="29" y="30" as="offset" />
          </mxGeometry>
        </mxCell>
        <mxCell id="6HvGipflXa48CZ0Cs9Gs-13" value="" style="endArrow=none;html=1;rounded=0;" parent="1" edge="1">
          <mxGeometry relative="1" as="geometry">
            <mxPoint x="1560" y="360" as="sourcePoint" />
            <mxPoint x="1560" y="380" as="targetPoint" />
          </mxGeometry>
        </mxCell>
        <mxCell id="6HvGipflXa48CZ0Cs9Gs-17" value="" style="endArrow=none;html=1;rounded=0;" parent="1" edge="1">
          <mxGeometry relative="1" as="geometry">
            <mxPoint x="1060" y="850" as="sourcePoint" />
            <mxPoint x="1090" y="830" as="targetPoint" />
          </mxGeometry>
        </mxCell>
        <mxCell id="6HvGipflXa48CZ0Cs9Gs-21" value="" style="endArrow=none;html=1;rounded=0;" parent="1" edge="1">
          <mxGeometry relative="1" as="geometry">
            <mxPoint x="1170" y="1040" as="sourcePoint" />
            <mxPoint x="1200" y="1020" as="targetPoint" />
          </mxGeometry>
        </mxCell>
        <mxCell id="6HvGipflXa48CZ0Cs9Gs-22" value="" style="endArrow=none;html=1;rounded=0;exitX=0;exitY=0.25;exitDx=0;exitDy=0;" parent="1" source="kRo_N9MMr0cQoMARdV8Y-51" edge="1">
          <mxGeometry relative="1" as="geometry">
            <mxPoint x="900" y="720" as="sourcePoint" />
            <mxPoint x="240" y="1050" as="targetPoint" />
          </mxGeometry>
        </mxCell>
        <mxCell id="6HvGipflXa48CZ0Cs9Gs-23" value="1" style="resizable=0;html=1;whiteSpace=wrap;align=left;verticalAlign=bottom;" parent="6HvGipflXa48CZ0Cs9Gs-22" connectable="0" vertex="1">
          <mxGeometry x="-1" relative="1" as="geometry">
            <mxPoint x="-63" y="-10" as="offset" />
          </mxGeometry>
        </mxCell>
        <mxCell id="6HvGipflXa48CZ0Cs9Gs-25" value="" style="endArrow=none;html=1;rounded=0;exitX=0;exitY=0.5;exitDx=0;exitDy=0;" parent="1" source="DrRs_UDzFUxH884JwZqi-41" edge="1">
          <mxGeometry relative="1" as="geometry">
            <mxPoint x="520" y="780" as="sourcePoint" />
            <mxPoint x="240" y="1050" as="targetPoint" />
            <Array as="points">
              <mxPoint x="240" y="520" />
            </Array>
          </mxGeometry>
        </mxCell>
        <mxCell id="6HvGipflXa48CZ0Cs9Gs-26" value="M" style="resizable=0;html=1;whiteSpace=wrap;align=left;verticalAlign=bottom;" parent="6HvGipflXa48CZ0Cs9Gs-25" connectable="0" vertex="1">
          <mxGeometry x="-1" relative="1" as="geometry">
            <mxPoint x="-50" y="-10" as="offset" />
          </mxGeometry>
        </mxCell>
        <mxCell id="6HvGipflXa48CZ0Cs9Gs-28" value="" style="endArrow=none;html=1;rounded=0;" parent="1" edge="1">
          <mxGeometry relative="1" as="geometry">
            <mxPoint x="710" y="530" as="sourcePoint" />
            <mxPoint x="710" y="510" as="targetPoint" />
          </mxGeometry>
        </mxCell>
        <mxCell id="6HvGipflXa48CZ0Cs9Gs-29" value="" style="endArrow=none;html=1;rounded=0;" parent="1" edge="1">
          <mxGeometry relative="1" as="geometry">
            <mxPoint x="1140" y="1060" as="sourcePoint" />
            <mxPoint x="1140" y="1040" as="targetPoint" />
          </mxGeometry>
        </mxCell>
        <mxCell id="6HvGipflXa48CZ0Cs9Gs-30" value="" style="endArrow=none;html=1;rounded=0;exitX=1;exitY=1;exitDx=0;exitDy=0;entryX=0;entryY=0;entryDx=0;entryDy=0;" parent="1" source="kRo_N9MMr0cQoMARdV8Y-40" target="kRo_N9MMr0cQoMARdV8Y-51" edge="1">
          <mxGeometry relative="1" as="geometry">
            <mxPoint x="1240" y="890" as="sourcePoint" />
            <mxPoint x="1400" y="890" as="targetPoint" />
          </mxGeometry>
        </mxCell>
        <mxCell id="6HvGipflXa48CZ0Cs9Gs-31" value="M" style="resizable=0;html=1;whiteSpace=wrap;align=left;verticalAlign=bottom;" parent="6HvGipflXa48CZ0Cs9Gs-30" connectable="0" vertex="1">
          <mxGeometry x="-1" relative="1" as="geometry">
            <mxPoint x="24" as="offset" />
          </mxGeometry>
        </mxCell>
        <mxCell id="6HvGipflXa48CZ0Cs9Gs-32" value="1" style="resizable=0;html=1;whiteSpace=wrap;align=right;verticalAlign=bottom;" parent="6HvGipflXa48CZ0Cs9Gs-30" connectable="0" vertex="1">
          <mxGeometry x="1" relative="1" as="geometry">
            <mxPoint x="17" y="-20" as="offset" />
          </mxGeometry>
        </mxCell>
        <mxCell id="4o2k3ZEFcS0BUwtpTcpo-1" value="Цена книги" style="ellipse;whiteSpace=wrap;html=1;align=center;" parent="1" vertex="1">
          <mxGeometry x="1463" y="65" width="100" height="40" as="geometry" />
        </mxCell>
        <mxCell id="4o2k3ZEFcS0BUwtpTcpo-2" value="" style="endArrow=none;html=1;rounded=0;exitX=0;exitY=1;exitDx=0;exitDy=0;entryX=1;entryY=0;entryDx=0;entryDy=0;" parent="1" source="4o2k3ZEFcS0BUwtpTcpo-1" target="kRo_N9MMr0cQoMARdV8Y-5" edge="1">
          <mxGeometry relative="1" as="geometry">
            <mxPoint x="1223" y="575" as="sourcePoint" />
            <mxPoint x="1383" y="575" as="targetPoint" />
          </mxGeometry>
        </mxCell>
        <mxCell id="RZ8F9FS0bJr9TMKxo4U8-1" value="Код места хранения" style="ellipse;whiteSpace=wrap;html=1;align=center;fontStyle=4;" parent="1" vertex="1">
          <mxGeometry x="360" y="570" width="100" height="40" as="geometry" />
        </mxCell>
        <mxCell id="RZ8F9FS0bJr9TMKxo4U8-2" value="" style="endArrow=none;html=1;rounded=0;exitX=0.5;exitY=1;exitDx=0;exitDy=0;entryX=0.5;entryY=0;entryDx=0;entryDy=0;" parent="1" source="RZ8F9FS0bJr9TMKxo4U8-1" target="DrRs_UDzFUxH884JwZqi-2" edge="1">
          <mxGeometry relative="1" as="geometry">
            <mxPoint x="610" y="490" as="sourcePoint" />
            <mxPoint x="770" y="490" as="targetPoint" />
          </mxGeometry>
        </mxCell>
        <mxCell id="RZ8F9FS0bJr9TMKxo4U8-3" value="&lt;div&gt;Состав накладной&lt;/div&gt;" style="shape=rhombus;perimeter=rhombusPerimeter;whiteSpace=wrap;html=1;align=center;" parent="1" vertex="1">
          <mxGeometry x="1143" y="220" width="130" height="70" as="geometry" />
        </mxCell>
        <mxCell id="RZ8F9FS0bJr9TMKxo4U8-5" value="" style="endArrow=none;html=1;rounded=0;exitX=0;exitY=0;exitDx=0;exitDy=0;entryX=1;entryY=1;entryDx=0;entryDy=0;" parent="1" source="kRo_N9MMr0cQoMARdV8Y-12" target="RZ8F9FS0bJr9TMKxo4U8-3" edge="1">
          <mxGeometry relative="1" as="geometry">
            <mxPoint x="1090" y="600" as="sourcePoint" />
            <mxPoint x="1250" y="600" as="targetPoint" />
          </mxGeometry>
        </mxCell>
        <mxCell id="RZ8F9FS0bJr9TMKxo4U8-6" value="M" style="resizable=0;html=1;whiteSpace=wrap;align=left;verticalAlign=bottom;" parent="RZ8F9FS0bJr9TMKxo4U8-5" connectable="0" vertex="1">
          <mxGeometry x="-1" relative="1" as="geometry">
            <mxPoint x="-10" y="-20" as="offset" />
          </mxGeometry>
        </mxCell>
        <mxCell id="RZ8F9FS0bJr9TMKxo4U8-11" value="" style="endArrow=none;html=1;rounded=0;" parent="1" edge="1">
          <mxGeometry relative="1" as="geometry">
            <mxPoint x="1410" y="330" as="sourcePoint" />
            <mxPoint x="1400" y="360" as="targetPoint" />
          </mxGeometry>
        </mxCell>
        <mxCell id="RZ8F9FS0bJr9TMKxo4U8-13" value="" style="endArrow=none;html=1;rounded=0;" parent="1" edge="1">
          <mxGeometry relative="1" as="geometry">
            <mxPoint x="920" y="270" as="sourcePoint" />
            <mxPoint x="900" y="290" as="targetPoint" />
          </mxGeometry>
        </mxCell>
        <mxCell id="RZ8F9FS0bJr9TMKxo4U8-14" value="&lt;div&gt;1&lt;/div&gt;" style="resizable=0;html=1;whiteSpace=wrap;align=left;verticalAlign=bottom;" parent="RZ8F9FS0bJr9TMKxo4U8-13" connectable="0" vertex="1">
          <mxGeometry x="-1" relative="1" as="geometry" />
        </mxCell>
        <mxCell id="RZ8F9FS0bJr9TMKxo4U8-16" value="Дата начала хранения" style="ellipse;whiteSpace=wrap;html=1;align=center;" parent="1" vertex="1">
          <mxGeometry x="550" y="595" width="100" height="40" as="geometry" />
        </mxCell>
        <mxCell id="RZ8F9FS0bJr9TMKxo4U8-17" value="Дата окончания хранения" style="ellipse;whiteSpace=wrap;html=1;align=center;" parent="1" vertex="1">
          <mxGeometry x="734" y="595" width="100" height="40" as="geometry" />
        </mxCell>
        <mxCell id="RZ8F9FS0bJr9TMKxo4U8-18" value="" style="endArrow=none;html=1;rounded=0;exitX=1;exitY=0;exitDx=0;exitDy=0;entryX=0;entryY=1;entryDx=0;entryDy=0;" parent="1" source="DrRs_UDzFUxH884JwZqi-1" target="RZ8F9FS0bJr9TMKxo4U8-17" edge="1">
          <mxGeometry relative="1" as="geometry">
            <mxPoint x="850" y="610" as="sourcePoint" />
            <mxPoint x="1010" y="610" as="targetPoint" />
          </mxGeometry>
        </mxCell>
        <mxCell id="RZ8F9FS0bJr9TMKxo4U8-19" value="" style="endArrow=none;html=1;rounded=0;exitX=0;exitY=0;exitDx=0;exitDy=0;entryX=1;entryY=1;entryDx=0;entryDy=0;" parent="1" source="DrRs_UDzFUxH884JwZqi-1" target="RZ8F9FS0bJr9TMKxo4U8-16" edge="1">
          <mxGeometry relative="1" as="geometry">
            <mxPoint x="735" y="663" as="sourcePoint" />
            <mxPoint x="759" y="639" as="targetPoint" />
          </mxGeometry>
        </mxCell>
        <mxCell id="RZ8F9FS0bJr9TMKxo4U8-20" value="Код книги" style="ellipse;whiteSpace=wrap;html=1;align=center;fontStyle=4;" parent="1" vertex="1">
          <mxGeometry x="1130" y="95" width="100" height="40" as="geometry" />
        </mxCell>
        <mxCell id="RZ8F9FS0bJr9TMKxo4U8-21" value="" style="endArrow=none;html=1;rounded=0;exitX=1;exitY=0.5;exitDx=0;exitDy=0;entryX=0;entryY=0.5;entryDx=0;entryDy=0;" parent="1" source="p1_Be9C10OXRyCUgE8wA-28" target="RZ8F9FS0bJr9TMKxo4U8-20" edge="1">
          <mxGeometry relative="1" as="geometry">
            <mxPoint x="1010" y="470" as="sourcePoint" />
            <mxPoint x="1170" y="470" as="targetPoint" />
          </mxGeometry>
        </mxCell>
        <mxCell id="RZ8F9FS0bJr9TMKxo4U8-22" value="Замещение утерянного экземпляра" style="ellipse;whiteSpace=wrap;html=1;align=center;" parent="1" vertex="1">
          <mxGeometry x="640" y="390" width="100" height="40" as="geometry" />
        </mxCell>
        <mxCell id="RZ8F9FS0bJr9TMKxo4U8-23" value="" style="endArrow=none;html=1;rounded=0;exitX=1;exitY=1;exitDx=0;exitDy=0;entryX=0.25;entryY=0;entryDx=0;entryDy=0;" parent="1" source="RZ8F9FS0bJr9TMKxo4U8-22" target="DrRs_UDzFUxH884JwZqi-41" edge="1">
          <mxGeometry relative="1" as="geometry">
            <mxPoint x="1010" y="560" as="sourcePoint" />
            <mxPoint x="1170" y="560" as="targetPoint" />
          </mxGeometry>
        </mxCell>
        <mxCell id="RZ8F9FS0bJr9TMKxo4U8-24" value="&lt;div&gt;Название&lt;/div&gt;" style="ellipse;whiteSpace=wrap;html=1;align=center;" parent="1" vertex="1">
          <mxGeometry x="572" y="240" width="100" height="40" as="geometry" />
        </mxCell>
        <mxCell id="RZ8F9FS0bJr9TMKxo4U8-25" value="Код издательства" style="ellipse;whiteSpace=wrap;html=1;align=center;fontStyle=4;" parent="1" vertex="1">
          <mxGeometry x="710" y="160" width="100" height="40" as="geometry" />
        </mxCell>
        <mxCell id="RZ8F9FS0bJr9TMKxo4U8-26" value="" style="endArrow=none;html=1;rounded=0;exitX=1;exitY=0.5;exitDx=0;exitDy=0;entryX=0;entryY=0.5;entryDx=0;entryDy=0;" parent="1" source="RZ8F9FS0bJr9TMKxo4U8-24" target="kRo_N9MMr0cQoMARdV8Y-3" edge="1">
          <mxGeometry relative="1" as="geometry">
            <mxPoint x="870" y="450" as="sourcePoint" />
            <mxPoint x="1030" y="450" as="targetPoint" />
          </mxGeometry>
        </mxCell>
        <mxCell id="RZ8F9FS0bJr9TMKxo4U8-27" value="" style="endArrow=none;html=1;rounded=0;exitX=1;exitY=1;exitDx=0;exitDy=0;entryX=0.25;entryY=0;entryDx=0;entryDy=0;" parent="1" source="RZ8F9FS0bJr9TMKxo4U8-25" target="kRo_N9MMr0cQoMARdV8Y-3" edge="1">
          <mxGeometry relative="1" as="geometry">
            <mxPoint x="870" y="450" as="sourcePoint" />
            <mxPoint x="1030" y="450" as="targetPoint" />
          </mxGeometry>
        </mxCell>
      </root>
    </mxGraphModel>
  </diagram>
</mxfile>
